<svg xmlns="http://www.w3.org/2000/svg" width="1280" height="720" viewBox="0 0 1280 720" role="img" aria-label="Главный экран сравнения файлов">
  <defs>
    <linearGradient id="brand" x1="0" y1="0" x2="1" y2="1">
      <stop offset="0" stop-color="#2563eb"/>
      <stop offset="1" stop-color="#0f766e"/>
    </linearGradient>
    <filter id="shadow" x="-20%" y="-20%" width="140%" height="140%">
      <feDropShadow dx="0" dy="12" stdDeviation="18" flood-color="#0f172a" flood-opacity=".14"/>
    </filter>
  </defs>
  <rect width="1280" height="720" rx="24" fill="#eef4f8"/>
  <rect x="36" y="28" width="1208" height="64" rx="16" fill="#0f172a"/>
  <rect x="58" y="43" width="34" height="34" rx="10" fill="url(#brand)"/>
  <text x="66" y="66" font-family="Segoe UI, Arial, sans-serif" font-weight="700" font-size="16" fill="#fff">СФ</text>
  <text x="108" y="66" font-family="Segoe UI, Arial, sans-serif" font-weight="700" font-size="20" fill="#fff">Сравнение файлов</text>
  <rect x="300" y="42" width="56" height="36" rx="14" fill="#0d3f4a" stroke="#4fd1c5"/>
  <text x="314" y="66" font-family="Segoe UI, Arial, sans-serif" font-size="14" fill="#d1fae5">2026</text>

  <rect x="36" y="112" width="1208" height="70" rx="16" fill="#f8fbff" stroke="#c8d8ea"/>
  <rect x="56" y="127" width="130" height="40" rx="10" fill="#fff" stroke="#8ab4ff"/>
  <text x="80" y="153" font-family="Segoe UI, Arial, sans-serif" font-weight="600" font-size="15" fill="#1455ff">Сравнение</text>
  <rect x="198" y="127" width="170" height="40" rx="10" fill="#f3f7fb" stroke="#d2deeb"/>
  <text x="224" y="153" font-family="Segoe UI, Arial, sans-serif" font-size="15" fill="#334155">Реестр объектов</text>

  <rect x="392" y="124" width="270" height="46" rx="10" fill="#fff" stroke="#c8d8ea"/>
  <rect x="406" y="133" width="38" height="28" rx="8" fill="#2563eb"/>
  <text x="411" y="153" font-family="Segoe UI, Arial, sans-serif" font-weight="700" font-size="12" fill="#fff">OLD</text>
  <text x="456" y="145" font-family="Segoe UI, Arial, sans-serif" font-weight="600" font-size="14" fill="#0f172a">исходный файл</text>
  <text x="456" y="160" font-family="Segoe UI, Arial, sans-serif" font-size="12" fill="#64748b">Файл 1</text>
  <rect x="680" y="124" width="270" height="46" rx="10" fill="#fff" stroke="#c8d8ea"/>
  <rect x="694" y="133" width="38" height="28" rx="8" fill="#0f766e"/>
  <text x="699" y="153" font-family="Segoe UI, Arial, sans-serif" font-weight="700" font-size="12" fill="#fff">NEW</text>
  <text x="744" y="145" font-family="Segoe UI, Arial, sans-serif" font-weight="600" font-size="14" fill="#0f172a">новая версия</text>
  <text x="744" y="160" font-family="Segoe UI, Arial, sans-serif" font-size="12" fill="#64748b">Файл 2</text>
  <rect x="972" y="124" width="112" height="46" rx="10" fill="#2563eb"/>
  <text x="994" y="153" font-family="Segoe UI, Arial, sans-serif" font-weight="700" font-size="14" fill="#fff">Сравнить</text>
  <rect x="1102" y="124" width="120" height="46" rx="16" fill="#ecfdf5" stroke="#5eead4"/>
  <text x="1124" y="153" font-family="Segoe UI, Arial, sans-serif" font-size="13" fill="#0f766e">Локальный режим</text>

  <rect x="36" y="204" width="880" height="466" rx="14" fill="#fff" stroke="#c8d8ea" filter="url(#shadow)"/>
  <rect x="52" y="220" width="72" height="34" rx="8" fill="#fff" stroke="#8ab4ff"/>
  <text x="78" y="242" font-family="Segoe UI, Arial, sans-serif" font-size="13" fill="#1455ff">Текст</text>
  <text x="148" y="242" font-family="Segoe UI, Arial, sans-serif" font-size="13" fill="#334155">Страницы</text>
  <text x="242" y="242" font-family="Segoe UI, Arial, sans-serif" font-size="13" fill="#334155">OCR</text>
  <text x="306" y="242" font-family="Segoe UI, Arial, sans-serif" font-size="13" fill="#334155">Hex</text>
  <line x1="52" y1="270" x2="900" y2="270" stroke="#d8e4f0"/>
  <text x="58" y="292" font-family="Consolas, monospace" font-size="14" fill="#64748b">Было</text>
  <text x="480" y="292" font-family="Consolas, monospace" font-size="14" fill="#64748b">Стало</text>
  <line x1="462" y1="284" x2="462" y2="650" stroke="#d8e4f0"/>
  <rect x="76" y="324" width="342" height="24" fill="#fee2e2"/>
  <rect x="498" y="324" width="342" height="24" fill="#dcfce7"/>
  <rect x="76" y="358" width="342" height="24" fill="#dbeafe"/>
  <rect x="498" y="358" width="342" height="24" fill="#dbeafe"/>
  <text x="58" y="342" font-family="Consolas, monospace" font-size="15" fill="#dc2626">40  Срок оплаты составляет 10 дней.</text>
  <text x="480" y="342" font-family="Consolas, monospace" font-size="15" fill="#059669">40  Срок оплаты составляет 7 дней.</text>
  <text x="58" y="376" font-family="Consolas, monospace" font-size="15" fill="#2563eb">41  Штраф 0,05% за каждый день.</text>
  <text x="480" y="376" font-family="Consolas, monospace" font-size="15" fill="#2563eb">41  Штраф 0,1% за каждый день.</text>

  <rect x="940" y="204" width="304" height="466" rx="14" fill="#fff" stroke="#c8d8ea" filter="url(#shadow)"/>
  <text x="964" y="236" font-family="Segoe UI, Arial, sans-serif" font-weight="700" font-size="20" fill="#0f172a">Найдено 3 изменения</text>
  <rect x="964" y="258" width="76" height="58" rx="10" fill="#fff7ed" stroke="#fed7aa"/>
  <text x="980" y="285" font-family="Segoe UI, Arial, sans-serif" font-weight="700" font-size="20" fill="#dc2626">1</text>
  <text x="980" y="304" font-family="Segoe UI, Arial, sans-serif" font-size="12" fill="#64748b">удалено</text>
  <rect x="1052" y="258" width="76" height="58" rx="10" fill="#f0fdf4" stroke="#bbf7d0"/>
  <text x="1068" y="285" font-family="Segoe UI, Arial, sans-serif" font-weight="700" font-size="20" fill="#059669">1</text>
  <text x="1068" y="304" font-family="Segoe UI, Arial, sans-serif" font-size="12" fill="#64748b">добавлено</text>
  <rect x="1140" y="258" width="76" height="58" rx="10" fill="#eff6ff" stroke="#bfdbfe"/>
  <text x="1156" y="285" font-family="Segoe UI, Arial, sans-serif" font-weight="700" font-size="20" fill="#2563eb">1</text>
  <text x="1156" y="304" font-family="Segoe UI, Arial, sans-serif" font-size="12" fill="#64748b">изменено</text>
  <rect x="964" y="346" width="256" height="76" rx="10" fill="#f8fbff" stroke="#8ab4ff"/>
  <text x="984" y="374" font-family="Segoe UI, Arial, sans-serif" font-weight="600" font-size="14" fill="#0f172a">Срок оплаты</text>
  <text x="984" y="396" font-family="Segoe UI, Arial, sans-serif" font-size="13" fill="#334155">строка 40: 10 дней -> 7 дней</text>
  <rect x="964" y="438" width="256" height="76" rx="10" fill="#f8fbff" stroke="#d2deeb"/>
  <text x="984" y="466" font-family="Segoe UI, Arial, sans-serif" font-weight="600" font-size="14" fill="#0f172a">Штраф</text>
  <text x="984" y="488" font-family="Segoe UI, Arial, sans-serif" font-size="13" fill="#334155">строка 41: 0,05% -> 0,1%</text>
</svg>
