<svg xmlns="http://www.w3.org/2000/svg" width="1280" height="720" viewBox="0 0 1280 720" role="img" aria-label="Экран реестра объектов">
  <defs>
    <linearGradient id="brand" x1="0" y1="0" x2="1" y2="1">
      <stop offset="0" stop-color="#2563eb"/>
      <stop offset="1" stop-color="#0f766e"/>
    </linearGradient>
    <filter id="shadow" x="-20%" y="-20%" width="140%" height="140%">
      <feDropShadow dx="0" dy="12" stdDeviation="18" flood-color="#0f172a" flood-opacity=".12"/>
    </filter>
  </defs>
  <rect width="1280" height="720" rx="24" fill="#eef4f8"/>
  <rect x="36" y="28" width="1208" height="64" rx="16" fill="#0f172a"/>
  <rect x="58" y="43" width="34" height="34" rx="10" fill="url(#brand)"/>
  <text x="66" y="66" font-family="Segoe UI, Arial, sans-serif" font-weight="700" font-size="16" fill="#fff">СФ</text>
  <text x="108" y="66" font-family="Segoe UI, Arial, sans-serif" font-weight="700" font-size="20" fill="#fff">Сравнение файлов</text>
  <rect x="56" y="118" width="154" height="42" rx="10" fill="#f8fbff" stroke="#d2deeb"/>
  <text x="86" y="145" font-family="Segoe UI, Arial, sans-serif" font-size="15" fill="#334155">Сравнение</text>
  <rect x="222" y="118" width="182" height="42" rx="10" fill="#fff" stroke="#8ab4ff"/>
  <text x="254" y="145" font-family="Segoe UI, Arial, sans-serif" font-weight="600" font-size="15" fill="#1455ff">Реестр объектов</text>
  <rect x="432" y="118" width="300" height="42" rx="10" fill="#fff" stroke="#c8d8ea"/>
  <text x="456" y="145" font-family="Segoe UI, Arial, sans-serif" font-size="14" fill="#64748b">Поиск объекта, файла, ответственного...</text>
  <rect x="754" y="118" width="90" height="42" rx="10" fill="#2563eb"/>
  <text x="778" y="145" font-family="Segoe UI, Arial, sans-serif" font-weight="700" font-size="14" fill="#fff">+ Объект</text>
  <rect x="858" y="118" width="110" height="42" rx="10" fill="#fff" stroke="#c8d8ea"/>
  <text x="874" y="145" font-family="Segoe UI, Arial, sans-serif" font-weight="600" font-size="14" fill="#0f172a">+ Подобъект</text>
  <rect x="982" y="118" width="104" height="42" rx="10" fill="#ecfdf5" stroke="#5eead4"/>
  <text x="1002" y="145" font-family="Segoe UI, Arial, sans-serif" font-weight="600" font-size="14" fill="#0f766e">+ Файл</text>

  <rect x="36" y="184" width="292" height="488" rx="14" fill="#fff" stroke="#c8d8ea" filter="url(#shadow)"/>
  <text x="60" y="222" font-family="Segoe UI, Arial, sans-serif" font-weight="700" font-size="20" fill="#0f172a">Реестр</text>
  <rect x="284" y="198" width="28" height="28" rx="8" fill="#fff" stroke="#c8d8ea"/>
  <text x="294" y="217" font-family="Segoe UI, Arial, sans-serif" font-size="16" fill="#0f172a">+</text>
  <rect x="56" y="254" width="252" height="42" rx="10" fill="#eef6ff" stroke="#8ab4ff"/>
  <text x="80" y="280" font-family="Segoe UI, Arial, sans-serif" font-weight="600" font-size="15" fill="#0f172a">Объект 1</text>
  <line x1="76" y1="296" x2="76" y2="344" stroke="#c8d8ea"/>
  <rect x="88" y="310" width="204" height="36" rx="8" fill="#fff" stroke="#d2deeb"/>
  <text x="110" y="333" font-family="Segoe UI, Arial, sans-serif" font-size="14" fill="#334155">Подобъект 1.1</text>
  <rect x="88" y="358" width="204" height="36" rx="8" fill="#fff" stroke="#d2deeb"/>
  <text x="110" y="381" font-family="Segoe UI, Arial, sans-serif" font-size="14" fill="#334155">Подобъект 1.2</text>

  <rect x="352" y="184" width="892" height="488" rx="14" fill="#fff" stroke="#c8d8ea" filter="url(#shadow)"/>
  <text x="384" y="226" font-family="Segoe UI, Arial, sans-serif" font-weight="700" font-size="26" fill="#0f172a">Объект 1</text>
  <rect x="384" y="260" width="112" height="36" rx="9" fill="#fff" stroke="#8ab4ff"/>
  <text x="420" y="283" font-family="Segoe UI, Arial, sans-serif" font-weight="600" font-size="13" fill="#1455ff">Файлы</text>
  <text x="528" y="283" font-family="Segoe UI, Arial, sans-serif" font-size="13" fill="#334155">Объект</text>
  <text x="626" y="283" font-family="Segoe UI, Arial, sans-serif" font-size="13" fill="#334155">История</text>
  <text x="742" y="283" font-family="Segoe UI, Arial, sans-serif" font-size="13" fill="#334155">Мониторинг</text>
  <text x="880" y="283" font-family="Segoe UI, Arial, sans-serif" font-size="13" fill="#334155">Риски</text>
  <text x="968" y="283" font-family="Segoe UI, Arial, sans-serif" font-size="13" fill="#334155">Версии</text>
  <line x1="384" y1="314" x2="1212" y2="314" stroke="#d8e4f0"/>

  <rect x="384" y="336" width="828" height="44" fill="#f3f7fb"/>
  <text x="406" y="364" font-family="Segoe UI, Arial, sans-serif" font-weight="700" font-size="13" fill="#334155">ID</text>
  <text x="522" y="364" font-family="Segoe UI, Arial, sans-serif" font-weight="700" font-size="13" fill="#334155">Файл до</text>
  <text x="776" y="364" font-family="Segoe UI, Arial, sans-serif" font-weight="700" font-size="13" fill="#334155">Файл после</text>
  <text x="1024" y="364" font-family="Segoe UI, Arial, sans-serif" font-weight="700" font-size="13" fill="#334155">Статус</text>
  <text x="1106" y="364" font-family="Segoe UI, Arial, sans-serif" font-weight="700" font-size="13" fill="#334155">Загружено</text>
  <rect x="384" y="380" width="828" height="52" fill="#eef6ff"/>
  <text x="410" y="414" font-family="Segoe UI, Arial, sans-serif" font-size="14" fill="#0f172a">1</text>
  <text x="522" y="414" font-family="Segoe UI, Arial, sans-serif" font-size="14" fill="#0f172a">config_v1.cfg</text>
  <text x="776" y="414" font-family="Segoe UI, Arial, sans-serif" font-size="14" fill="#0f172a">config_v2.cfg</text>
  <rect x="1018" y="394" width="82" height="26" rx="13" fill="#fff7ed" stroke="#fed7aa"/>
  <text x="1038" y="412" font-family="Segoe UI, Arial, sans-serif" font-weight="600" font-size="12" fill="#c2410c">Изменен</text>
  <text x="1106" y="414" font-family="Segoe UI, Arial, sans-serif" font-size="13" fill="#334155">14.06.2026</text>
  <rect x="384" y="446" width="828" height="92" rx="10" fill="#f8fbff" stroke="#d2deeb"/>
  <text x="408" y="476" font-family="Segoe UI, Arial, sans-serif" font-weight="700" font-size="16" fill="#0f172a">Контекстное меню</text>
  <text x="408" y="504" font-family="Segoe UI, Arial, sans-serif" font-size="14" fill="#334155">Правая кнопка мыши по объекту или файлу: сравнить, проверить, удалить, открыть историю.</text>
</svg>
